<?xml version="1.0" encoding="UTF-8" standalone="no"?>
<!DOCTYPE svg PUBLIC "-//W3C//DTD SVG 1.1//EN"
 "http://www.w3.org/Graphics/SVG/1.1/DTD/svg11.dtd">
<!-- Generated by graphviz version 2.36.0 (20140111.2315)
 -->
<!-- Title: g Pages: 1 -->
<svg width="286pt" height="660pt"
 viewBox="0.00 0.00 286.00 660.00" xmlns="http://www.w3.org/2000/svg" xmlns:xlink="http://www.w3.org/1999/xlink">
<g id="graph0" class="graph" transform="scale(1 1) rotate(0) translate(4 656)">
<title>g</title>
<polygon fill="white" stroke="none" points="-4,4 -4,-656 282,-656 282,4 -4,4"/>
<!-- I -->
<g id="node1" class="node"><title>I</title>
<ellipse fill="none" stroke="black" cx="57" cy="-634" rx="27" ry="18"/>
<text text-anchor="middle" x="57" y="-630.3" font-family="Times,serif" font-size="14.00">I</text>
</g>
<!-- A -->
<g id="node2" class="node"><title>A</title>
<ellipse fill="none" stroke="black" cx="150" cy="-546" rx="27" ry="18"/>
<text text-anchor="middle" x="150" y="-542.3" font-family="Times,serif" font-size="14.00">A</text>
</g>
<!-- I&#45;&gt;A -->
<g id="edge1" class="edge"><title>I&#45;&gt;A</title>
<path fill="none" stroke="black" d="M72.3571,-618.799C87.3894,-604.898 110.458,-583.566 127.548,-567.762"/>
<polygon fill="black" stroke="black" points="129.963,-570.296 134.929,-560.937 125.21,-565.157 129.963,-570.296"/>
<text text-anchor="middle" x="117" y="-586.3" font-family="Times,serif" font-size="14.00">A</text>
</g>
<!-- H -->
<g id="node3" class="node"><title>H</title>
<ellipse fill="none" stroke="black" cx="78" cy="-18" rx="27" ry="18"/>
<text text-anchor="middle" x="78" y="-14.3" font-family="Times,serif" font-size="14.00">H</text>
</g>
<!-- I&#45;&gt;H -->
<g id="edge2" class="edge"><title>I&#45;&gt;H</title>
<path fill="none" stroke="black" d="M40.5132,-619.329C23.679,-603.738 0,-576.555 0,-547 0,-547 0,-547 0,-105 0,-79.9489 7.5235,-72.8701 24,-54 30.7079,-46.3176 39.4985,-39.6636 48.0335,-34.2814"/>
<polygon fill="black" stroke="black" points="49.9051,-37.241 56.7372,-29.1432 46.3465,-31.213 49.9051,-37.241"/>
<text text-anchor="middle" x="5" y="-322.3" font-family="Times,serif" font-size="14.00">H</text>
</g>
<!-- AA -->
<g id="node4" class="node"><title>AA</title>
<ellipse fill="none" stroke="black" cx="182" cy="-458" rx="27" ry="18"/>
<text text-anchor="middle" x="182" y="-454.3" font-family="Times,serif" font-size="14.00">AA</text>
</g>
<!-- A&#45;&gt;AA -->
<g id="edge3" class="edge"><title>A&#45;&gt;AA</title>
<path fill="none" stroke="black" d="M156.17,-528.418C160.73,-516.164 167.028,-499.236 172.264,-485.165"/>
<polygon fill="black" stroke="black" points="175.642,-486.124 175.849,-475.531 169.081,-483.682 175.642,-486.124"/>
<text text-anchor="middle" x="174" y="-498.3" font-family="Times,serif" font-size="14.00">A</text>
</g>
<!-- HAAA -->
<g id="node5" class="node"><title>HAAA</title>
<ellipse fill="none" stroke="black" cx="184" cy="-106" rx="36.096" ry="18"/>
<text text-anchor="middle" x="184" y="-102.3" font-family="Times,serif" font-size="14.00">HAAA</text>
</g>
<!-- A&#45;&gt;HAAA -->
<g id="edge4" class="edge"><title>A&#45;&gt;HAAA</title>
<path fill="none" stroke="black" d="M140.477,-528.954C120.491,-493.708 76,-406.337 76,-327 76,-327 76,-327 76,-193 76,-167.756 82.6512,-159.337 101,-142 112.452,-131.179 127.746,-123.455 142.084,-118.065"/>
<polygon fill="black" stroke="black" points="143.496,-121.28 151.798,-114.698 141.203,-114.666 143.496,-121.28"/>
<text text-anchor="middle" x="82" y="-322.3" font-family="Times,serif" font-size="14.00">H</text>
</g>
<!-- H&#45;&gt;I -->
<g id="edge10" class="edge"><title>H&#45;&gt;I</title>
<path fill="none" stroke="black" d="M65.9987,-34.1762C54.2164,-50.6334 38,-78.1595 38,-105 38,-547 38,-547 38,-547 38,-567.387 43.1537,-589.865 48.0928,-606.727"/>
<polygon fill="black" stroke="black" points="44.7952,-607.911 51.0924,-616.431 51.483,-605.843 44.7952,-607.911"/>
<text text-anchor="middle" x="43" y="-322.3" font-family="Times,serif" font-size="14.00">H</text>
</g>
<!-- HA -->
<g id="node8" class="node"><title>HA</title>
<ellipse fill="none" stroke="black" cx="134" cy="-282" rx="27" ry="18"/>
<text text-anchor="middle" x="134" y="-278.3" font-family="Times,serif" font-size="14.00">HA</text>
</g>
<!-- H&#45;&gt;HA -->
<g id="edge9" class="edge"><title>H&#45;&gt;HA</title>
<path fill="none" stroke="black" d="M81.615,-35.9132C91.0836,-80.2127 116.671,-199.926 128.213,-253.927"/>
<polygon fill="black" stroke="black" points="124.813,-254.762 130.326,-263.809 131.658,-253.299 124.813,-254.762"/>
<text text-anchor="middle" x="113" y="-146.3" font-family="Times,serif" font-size="14.00">A</text>
</g>
<!-- AAA -->
<g id="node6" class="node"><title>AAA</title>
<ellipse fill="none" stroke="black" cx="134" cy="-370" rx="29.3479" ry="18"/>
<text text-anchor="middle" x="134" y="-366.3" font-family="Times,serif" font-size="14.00">AAA</text>
</g>
<!-- AA&#45;&gt;AAA -->
<g id="edge5" class="edge"><title>AA&#45;&gt;AAA</title>
<path fill="none" stroke="black" d="M172.972,-440.824C165.976,-428.291 156.156,-410.697 148.124,-396.305"/>
<polygon fill="black" stroke="black" points="151.081,-394.422 143.151,-387.396 144.969,-397.834 151.081,-394.422"/>
<text text-anchor="middle" x="168" y="-410.3" font-family="Times,serif" font-size="14.00">A</text>
</g>
<!-- HAA -->
<g id="node7" class="node"><title>HAA</title>
<ellipse fill="none" stroke="black" cx="188" cy="-194" rx="29.3479" ry="18"/>
<text text-anchor="middle" x="188" y="-190.3" font-family="Times,serif" font-size="14.00">HAA</text>
</g>
<!-- AA&#45;&gt;HAA -->
<g id="edge6" class="edge"><title>AA&#45;&gt;HAA</title>
<path fill="none" stroke="black" d="M195.191,-442.034C199.513,-436.193 203.775,-429.178 206,-422 231.261,-340.492 226.077,-312.938 206,-230 205.212,-226.746 204.067,-223.455 202.729,-220.261"/>
<polygon fill="black" stroke="black" points="205.806,-218.585 198.306,-211.102 199.503,-221.629 205.806,-218.585"/>
<text text-anchor="middle" x="229" y="-322.3" font-family="Times,serif" font-size="14.00">H</text>
</g>
<!-- HAAA&#45;&gt;A -->
<g id="edge16" class="edge"><title>HAAA&#45;&gt;A</title>
<path fill="none" stroke="black" d="M209.203,-119.334C233.945,-133.417 268,-158.98 268,-193 268,-459 268,-459 268,-459 268,-500.53 219.674,-524.126 184.875,-535.733"/>
<polygon fill="black" stroke="black" points="183.517,-532.491 175.025,-538.826 185.614,-539.17 183.517,-532.491"/>
<text text-anchor="middle" x="273" y="-322.3" font-family="Times,serif" font-size="14.00">H</text>
</g>
<!-- HAAA&#45;&gt;H -->
<g id="edge15" class="edge"><title>HAAA&#45;&gt;H</title>
<path fill="none" stroke="black" d="M170.074,-89.374C160.246,-78.7878 146.479,-64.8125 133,-54 124.875,-47.4823 115.484,-41.1275 106.787,-35.6607"/>
<polygon fill="black" stroke="black" points="108.413,-32.5526 98.0569,-30.3157 104.758,-38.5224 108.413,-32.5526"/>
<text text-anchor="middle" x="156" y="-58.3" font-family="Times,serif" font-size="14.00">A</text>
</g>
<!-- AAA&#45;&gt;I -->
<g id="edge7" class="edge"><title>AAA&#45;&gt;I</title>
<path fill="none" stroke="black" d="M127.277,-387.916C118.078,-411.448 101.414,-455.514 90,-494 78.6187,-532.375 68.4726,-577.606 62.5273,-605.799"/>
<polygon fill="black" stroke="black" points="59.0736,-605.216 60.4606,-615.72 65.9265,-606.644 59.0736,-605.216"/>
<text text-anchor="middle" x="95" y="-498.3" font-family="Times,serif" font-size="14.00">A</text>
</g>
<!-- AAA&#45;&gt;HA -->
<g id="edge8" class="edge"><title>AAA&#45;&gt;HA</title>
<path fill="none" stroke="black" d="M134,-351.597C134,-339.746 134,-323.817 134,-310.292"/>
<polygon fill="black" stroke="black" points="137.5,-310.084 134,-300.084 130.5,-310.084 137.5,-310.084"/>
<text text-anchor="middle" x="139" y="-322.3" font-family="Times,serif" font-size="14.00">H</text>
</g>
<!-- HAA&#45;&gt;AA -->
<g id="edge14" class="edge"><title>HAA&#45;&gt;AA</title>
<path fill="none" stroke="black" d="M187.605,-212.254C186.586,-256.738 183.864,-375.605 182.627,-429.616"/>
<polygon fill="black" stroke="black" points="179.124,-429.732 182.394,-439.809 186.122,-429.892 179.124,-429.732"/>
<text text-anchor="middle" x="191" y="-322.3" font-family="Times,serif" font-size="14.00">H</text>
</g>
<!-- HAA&#45;&gt;HAAA -->
<g id="edge13" class="edge"><title>HAA&#45;&gt;HAAA</title>
<path fill="none" stroke="black" d="M187.191,-175.597C186.639,-163.746 185.898,-147.817 185.269,-134.292"/>
<polygon fill="black" stroke="black" points="188.756,-133.911 184.795,-124.084 181.763,-134.236 188.756,-133.911"/>
<text text-anchor="middle" x="192" y="-146.3" font-family="Times,serif" font-size="14.00">A</text>
</g>
<!-- HA&#45;&gt;AAA -->
<g id="edge12" class="edge"><title>HA&#45;&gt;AAA</title>
<path fill="none" stroke="black" d="M125.97,-299.343C123.549,-305.097 121.213,-311.702 120,-318 118.655,-324.983 118.655,-327.017 120,-334 120.587,-337.051 121.438,-340.173 122.435,-343.236"/>
<polygon fill="black" stroke="black" points="119.18,-344.524 125.97,-352.657 125.734,-342.065 119.18,-344.524"/>
<text text-anchor="middle" x="125" y="-322.3" font-family="Times,serif" font-size="14.00">H</text>
</g>
<!-- HA&#45;&gt;HAA -->
<g id="edge11" class="edge"><title>HA&#45;&gt;HAA</title>
<path fill="none" stroke="black" d="M143.904,-265.226C151.923,-252.456 163.358,-234.244 172.574,-219.567"/>
<polygon fill="black" stroke="black" points="175.622,-221.295 177.975,-210.965 169.694,-217.573 175.622,-221.295"/>
<text text-anchor="middle" x="171" y="-234.3" font-family="Times,serif" font-size="14.00">A</text>
</g>
</g>
</svg>
