<?xml version="1.0" encoding="UTF-8" standalone="no"?>
<!DOCTYPE svg PUBLIC "-//W3C//DTD SVG 1.1//EN"
 "http://www.w3.org/Graphics/SVG/1.1/DTD/svg11.dtd">
<!-- Generated by graphviz version 2.36.0 (20140111.2315)
 -->
<!-- Title: g Pages: 1 -->
<svg width="526pt" height="206pt"
 viewBox="0.00 0.00 526.00 206.00" xmlns="http://www.w3.org/2000/svg" xmlns:xlink="http://www.w3.org/1999/xlink">
<g id="graph0" class="graph" transform="scale(1 1) rotate(0) translate(4 202)">
<title>g</title>
<polygon fill="white" stroke="none" points="-4,4 -4,-202 522,-202 522,4 -4,4"/>
<!-- source -->
<g id="node1" class="node"><title>source</title>
<ellipse fill="none" stroke="black" cx="34" cy="-72" rx="33.5952" ry="18"/>
<text text-anchor="middle" x="34" y="-68.3" font-family="Times,serif" font-size="14.00">source</text>
</g>
<!-- F1 -->
<g id="node2" class="node"><title>F1</title>
<ellipse fill="none" stroke="black" cx="131" cy="-126" rx="27" ry="18"/>
<text text-anchor="middle" x="131" y="-122.3" font-family="Times,serif" font-size="14.00">F1</text>
</g>
<!-- source&#45;&gt;F1 -->
<g id="edge1" class="edge"><title>source&#45;&gt;F1</title>
<path fill="none" stroke="black" d="M57.9969,-85.0719C70.8465,-92.3759 86.9906,-101.553 100.734,-109.365"/>
<polygon fill="black" stroke="black" points="99.3715,-112.616 109.795,-114.515 102.831,-106.53 99.3715,-112.616"/>
</g>
<!-- F2 -->
<g id="node3" class="node"><title>F2</title>
<ellipse fill="none" stroke="black" cx="131" cy="-18" rx="27" ry="18"/>
<text text-anchor="middle" x="131" y="-14.3" font-family="Times,serif" font-size="14.00">F2</text>
</g>
<!-- source&#45;&gt;F2 -->
<g id="edge2" class="edge"><title>source&#45;&gt;F2</title>
<path fill="none" stroke="black" d="M57.9969,-58.9281C70.8465,-51.6241 86.9906,-42.4474 100.734,-34.6355"/>
<polygon fill="black" stroke="black" points="102.831,-37.4696 109.795,-29.4851 99.3715,-31.384 102.831,-37.4696"/>
</g>
<!-- F3 -->
<g id="node4" class="node"><title>F3</title>
<ellipse fill="none" stroke="black" cx="131" cy="-72" rx="27" ry="18"/>
<text text-anchor="middle" x="131" y="-68.3" font-family="Times,serif" font-size="14.00">F3</text>
</g>
<!-- source&#45;&gt;F3 -->
<g id="edge3" class="edge"><title>source&#45;&gt;F3</title>
<path fill="none" stroke="black" d="M67.9598,-72C76.3416,-72 85.392,-72 93.9203,-72"/>
<polygon fill="black" stroke="black" points="93.984,-75.5001 103.984,-72 93.9839,-68.5001 93.984,-75.5001"/>
</g>
<!-- C1 -->
<g id="node5" class="node"><title>C1</title>
<ellipse fill="none" stroke="black" cx="221" cy="-126" rx="27" ry="18"/>
<text text-anchor="middle" x="221" y="-122.3" font-family="Times,serif" font-size="14.00">C1</text>
</g>
<!-- F1&#45;&gt;C1 -->
<g id="edge4" class="edge"><title>F1&#45;&gt;C1</title>
<path fill="none" stroke="black" d="M158.403,-126C166.393,-126 175.311,-126 183.824,-126"/>
<polygon fill="black" stroke="black" points="183.919,-129.5 193.919,-126 183.919,-122.5 183.919,-129.5"/>
</g>
<!-- C3 -->
<g id="node7" class="node"><title>C3</title>
<ellipse fill="none" stroke="black" cx="221" cy="-72" rx="27" ry="18"/>
<text text-anchor="middle" x="221" y="-68.3" font-family="Times,serif" font-size="14.00">C3</text>
</g>
<!-- F1&#45;&gt;C3 -->
<g id="edge8" class="edge"><title>F1&#45;&gt;C3</title>
<path fill="none" stroke="black" d="M151.53,-114.016C163.379,-106.745 178.699,-97.3438 191.842,-89.2785"/>
<polygon fill="black" stroke="black" points="193.832,-92.1642 200.525,-83.9508 190.171,-86.1979 193.832,-92.1642"/>
</g>
<!-- C4 -->
<g id="node8" class="node"><title>C4</title>
<ellipse fill="none" stroke="black" cx="221" cy="-180" rx="27" ry="18"/>
<text text-anchor="middle" x="221" y="-176.3" font-family="Times,serif" font-size="14.00">C4</text>
</g>
<!-- F1&#45;&gt;C4 -->
<g id="edge10" class="edge"><title>F1&#45;&gt;C4</title>
<path fill="none" stroke="black" d="M151.53,-137.984C163.379,-145.255 178.699,-154.656 191.842,-162.721"/>
<polygon fill="black" stroke="black" points="190.171,-165.802 200.525,-168.049 193.832,-159.836 190.171,-165.802"/>
</g>
<!-- F2&#45;&gt;C1 -->
<g id="edge5" class="edge"><title>F2&#45;&gt;C1</title>
<path fill="none" stroke="black" d="M147.072,-32.7008C150.787,-36.577 154.656,-40.8416 158,-45 176.076,-67.4781 175.924,-76.5219 194,-99 195.254,-100.559 196.582,-102.134 197.948,-103.697"/>
<polygon fill="black" stroke="black" points="195.587,-106.301 204.928,-111.299 200.743,-101.566 195.587,-106.301"/>
</g>
<!-- C2 -->
<g id="node6" class="node"><title>C2</title>
<ellipse fill="none" stroke="black" cx="221" cy="-18" rx="27" ry="18"/>
<text text-anchor="middle" x="221" y="-14.3" font-family="Times,serif" font-size="14.00">C2</text>
</g>
<!-- F2&#45;&gt;C2 -->
<g id="edge6" class="edge"><title>F2&#45;&gt;C2</title>
<path fill="none" stroke="black" d="M158.403,-18C166.393,-18 175.311,-18 183.824,-18"/>
<polygon fill="black" stroke="black" points="183.919,-21.5001 193.919,-18 183.919,-14.5001 183.919,-21.5001"/>
</g>
<!-- F3&#45;&gt;C2 -->
<g id="edge7" class="edge"><title>F3&#45;&gt;C2</title>
<path fill="none" stroke="black" d="M151.53,-60.0156C163.379,-52.7448 178.699,-43.3438 191.842,-35.2785"/>
<polygon fill="black" stroke="black" points="193.832,-38.1642 200.525,-29.9508 190.171,-32.1979 193.832,-38.1642"/>
</g>
<!-- F3&#45;&gt;C3 -->
<g id="edge9" class="edge"><title>F3&#45;&gt;C3</title>
<path fill="none" stroke="black" d="M158.403,-72C166.393,-72 175.311,-72 183.824,-72"/>
<polygon fill="black" stroke="black" points="183.919,-75.5001 193.919,-72 183.919,-68.5001 183.919,-75.5001"/>
</g>
<!-- F3&#45;&gt;C4 -->
<g id="edge11" class="edge"><title>F3&#45;&gt;C4</title>
<path fill="none" stroke="black" d="M147.072,-86.7008C150.787,-90.577 154.656,-94.8416 158,-99 176.076,-121.478 175.924,-130.522 194,-153 195.254,-154.559 196.582,-156.134 197.948,-157.697"/>
<polygon fill="black" stroke="black" points="195.587,-160.301 204.928,-165.299 200.743,-155.566 195.587,-160.301"/>
</g>
<!-- C1&#39; -->
<g id="node9" class="node"><title>C1&#39;</title>
<ellipse fill="none" stroke="black" cx="311" cy="-126" rx="27" ry="18"/>
<text text-anchor="middle" x="311" y="-122.3" font-family="Times,serif" font-size="14.00">C1&#39;</text>
</g>
<!-- C1&#45;&gt;C1&#39; -->
<g id="edge12" class="edge"><title>C1&#45;&gt;C1&#39;</title>
<path fill="none" stroke="black" d="M248.403,-126C256.393,-126 265.311,-126 273.824,-126"/>
<polygon fill="black" stroke="black" points="273.919,-129.5 283.919,-126 273.919,-122.5 273.919,-129.5"/>
</g>
<!-- C2&#39; -->
<g id="node10" class="node"><title>C2&#39;</title>
<ellipse fill="none" stroke="black" cx="311" cy="-18" rx="27" ry="18"/>
<text text-anchor="middle" x="311" y="-14.3" font-family="Times,serif" font-size="14.00">C2&#39;</text>
</g>
<!-- C2&#45;&gt;C2&#39; -->
<g id="edge13" class="edge"><title>C2&#45;&gt;C2&#39;</title>
<path fill="none" stroke="black" d="M248.403,-18C256.393,-18 265.311,-18 273.824,-18"/>
<polygon fill="black" stroke="black" points="273.919,-21.5001 283.919,-18 273.919,-14.5001 273.919,-21.5001"/>
</g>
<!-- C3&#39; -->
<g id="node11" class="node"><title>C3&#39;</title>
<ellipse fill="none" stroke="black" cx="311" cy="-72" rx="27" ry="18"/>
<text text-anchor="middle" x="311" y="-68.3" font-family="Times,serif" font-size="14.00">C3&#39;</text>
</g>
<!-- C3&#45;&gt;C3&#39; -->
<g id="edge14" class="edge"><title>C3&#45;&gt;C3&#39;</title>
<path fill="none" stroke="black" d="M248.403,-72C256.393,-72 265.311,-72 273.824,-72"/>
<polygon fill="black" stroke="black" points="273.919,-75.5001 283.919,-72 273.919,-68.5001 273.919,-75.5001"/>
</g>
<!-- C4&#39; -->
<g id="node12" class="node"><title>C4&#39;</title>
<ellipse fill="none" stroke="black" cx="311" cy="-180" rx="27" ry="18"/>
<text text-anchor="middle" x="311" y="-176.3" font-family="Times,serif" font-size="14.00">C4&#39;</text>
</g>
<!-- C4&#45;&gt;C4&#39; -->
<g id="edge15" class="edge"><title>C4&#45;&gt;C4&#39;</title>
<path fill="none" stroke="black" d="M248.403,-180C256.393,-180 265.311,-180 273.824,-180"/>
<polygon fill="black" stroke="black" points="273.919,-183.5 283.919,-180 273.919,-176.5 273.919,-183.5"/>
</g>
<!-- D3 -->
<g id="node13" class="node"><title>D3</title>
<ellipse fill="none" stroke="black" cx="401" cy="-126" rx="27" ry="18"/>
<text text-anchor="middle" x="401" y="-122.3" font-family="Times,serif" font-size="14.00">D3</text>
</g>
<!-- C1&#39;&#45;&gt;D3 -->
<g id="edge16" class="edge"><title>C1&#39;&#45;&gt;D3</title>
<path fill="none" stroke="black" d="M338.403,-126C346.393,-126 355.311,-126 363.824,-126"/>
<polygon fill="black" stroke="black" points="363.919,-129.5 373.919,-126 363.919,-122.5 363.919,-129.5"/>
</g>
<!-- D1 -->
<g id="node14" class="node"><title>D1</title>
<ellipse fill="none" stroke="black" cx="401" cy="-72" rx="27" ry="18"/>
<text text-anchor="middle" x="401" y="-68.3" font-family="Times,serif" font-size="14.00">D1</text>
</g>
<!-- C1&#39;&#45;&gt;D1 -->
<g id="edge17" class="edge"><title>C1&#39;&#45;&gt;D1</title>
<path fill="none" stroke="black" d="M331.53,-114.016C343.379,-106.745 358.699,-97.3438 371.842,-89.2785"/>
<polygon fill="black" stroke="black" points="373.832,-92.1642 380.525,-83.9508 370.171,-86.1979 373.832,-92.1642"/>
</g>
<!-- C2&#39;&#45;&gt;D1 -->
<g id="edge18" class="edge"><title>C2&#39;&#45;&gt;D1</title>
<path fill="none" stroke="black" d="M331.53,-29.9844C343.379,-37.2552 358.699,-46.6562 371.842,-54.7215"/>
<polygon fill="black" stroke="black" points="370.171,-57.8021 380.525,-60.0492 373.832,-51.8358 370.171,-57.8021"/>
</g>
<!-- D2 -->
<g id="node15" class="node"><title>D2</title>
<ellipse fill="none" stroke="black" cx="401" cy="-18" rx="27" ry="18"/>
<text text-anchor="middle" x="401" y="-14.3" font-family="Times,serif" font-size="14.00">D2</text>
</g>
<!-- C2&#39;&#45;&gt;D2 -->
<g id="edge19" class="edge"><title>C2&#39;&#45;&gt;D2</title>
<path fill="none" stroke="black" d="M338.403,-18C346.393,-18 355.311,-18 363.824,-18"/>
<polygon fill="black" stroke="black" points="363.919,-21.5001 373.919,-18 363.919,-14.5001 363.919,-21.5001"/>
</g>
<!-- C3&#39;&#45;&gt;D1 -->
<g id="edge20" class="edge"><title>C3&#39;&#45;&gt;D1</title>
<path fill="none" stroke="black" d="M338.403,-72C346.393,-72 355.311,-72 363.824,-72"/>
<polygon fill="black" stroke="black" points="363.919,-75.5001 373.919,-72 363.919,-68.5001 363.919,-75.5001"/>
</g>
<!-- C3&#39;&#45;&gt;D2 -->
<g id="edge21" class="edge"><title>C3&#39;&#45;&gt;D2</title>
<path fill="none" stroke="black" d="M331.53,-60.0156C343.379,-52.7448 358.699,-43.3438 371.842,-35.2785"/>
<polygon fill="black" stroke="black" points="373.832,-38.1642 380.525,-29.9508 370.171,-32.1979 373.832,-38.1642"/>
</g>
<!-- C4&#39;&#45;&gt;D3 -->
<g id="edge22" class="edge"><title>C4&#39;&#45;&gt;D3</title>
<path fill="none" stroke="black" d="M331.53,-168.016C343.379,-160.745 358.699,-151.344 371.842,-143.279"/>
<polygon fill="black" stroke="black" points="373.832,-146.164 380.525,-137.951 370.171,-140.198 373.832,-146.164"/>
</g>
<!-- sink -->
<g id="node16" class="node"><title>sink</title>
<ellipse fill="none" stroke="black" cx="491" cy="-72" rx="27" ry="18"/>
<text text-anchor="middle" x="491" y="-68.3" font-family="Times,serif" font-size="14.00">sink</text>
</g>
<!-- D3&#45;&gt;sink -->
<g id="edge25" class="edge"><title>D3&#45;&gt;sink</title>
<path fill="none" stroke="black" d="M421.53,-114.016C433.379,-106.745 448.699,-97.3438 461.842,-89.2785"/>
<polygon fill="black" stroke="black" points="463.832,-92.1642 470.525,-83.9508 460.171,-86.1979 463.832,-92.1642"/>
</g>
<!-- D1&#45;&gt;sink -->
<g id="edge23" class="edge"><title>D1&#45;&gt;sink</title>
<path fill="none" stroke="black" d="M428.403,-72C436.393,-72 445.311,-72 453.824,-72"/>
<polygon fill="black" stroke="black" points="453.919,-75.5001 463.919,-72 453.919,-68.5001 453.919,-75.5001"/>
</g>
<!-- D2&#45;&gt;sink -->
<g id="edge24" class="edge"><title>D2&#45;&gt;sink</title>
<path fill="none" stroke="black" d="M421.53,-29.9844C433.379,-37.2552 448.699,-46.6562 461.842,-54.7215"/>
<polygon fill="black" stroke="black" points="460.171,-57.8021 470.525,-60.0492 463.832,-51.8358 460.171,-57.8021"/>
</g>
</g>
</svg>
