<?xml version="1.0" encoding="UTF-8" standalone="no"?>
<!DOCTYPE svg PUBLIC "-//W3C//DTD SVG 1.1//EN"
 "http://www.w3.org/Graphics/SVG/1.1/DTD/svg11.dtd">
<!-- Generated by graphviz version 2.36.0 (20140111.2315)
 -->
<!-- Title: g2 Pages: 1 -->
<svg width="1038pt" height="110pt"
 viewBox="0.00 0.00 1038.00 110.00" xmlns="http://www.w3.org/2000/svg" xmlns:xlink="http://www.w3.org/1999/xlink">
<g id="graph0" class="graph" transform="scale(1 1) rotate(0) translate(4 106)">
<title>g2</title>
<polygon fill="white" stroke="none" points="-4,4 -4,-106 1034,-106 1034,4 -4,4"/>
<!-- 0 -->
<g id="node1" class="node"><title>0</title>
<ellipse fill="none" stroke="black" cx="27" cy="-38" rx="27" ry="18"/>
<text text-anchor="middle" x="27" y="-34.3" font-family="Times,serif" font-size="14.00">0</text>
</g>
<!-- 1 -->
<g id="node2" class="node"><title>1</title>
<ellipse fill="none" stroke="black" cx="143" cy="-38" rx="27" ry="18"/>
<text text-anchor="middle" x="143" y="-34.3" font-family="Times,serif" font-size="14.00">1</text>
</g>
<!-- 0&#45;&gt;1 -->
<g id="edge1" class="edge"><title>0&#45;&gt;1</title>
<path fill="none" stroke="black" d="M54.1539,-38C69.5053,-38 89.1283,-38 105.932,-38"/>
<polygon fill="black" stroke="black" points="105.968,-41.5001 115.968,-38 105.968,-34.5001 105.968,-41.5001"/>
<text text-anchor="middle" x="85" y="-41.8" font-family="Times,serif" font-size="14.00">2 / 0</text>
</g>
<!-- 1&#39; -->
<g id="node3" class="node"><title>1&#39;</title>
<ellipse fill="none" stroke="black" cx="259" cy="-84" rx="27" ry="18"/>
<text text-anchor="middle" x="259" y="-80.3" font-family="Times,serif" font-size="14.00">1&#39;</text>
</g>
<!-- 1&#45;&gt;1&#39; -->
<g id="edge2" class="edge"><title>1&#45;&gt;1&#39;</title>
<path fill="none" stroke="black" d="M166.523,-47.0881C183.542,-53.9555 207.13,-63.4734 226.09,-71.1241"/>
<polygon fill="black" stroke="black" points="224.941,-74.4345 235.524,-74.9308 227.56,-67.943 224.941,-74.4345"/>
<text text-anchor="middle" x="201" y="-68.8" font-family="Times,serif" font-size="14.00">2 / 0</text>
</g>
<!-- 2&#39; -->
<g id="node5" class="node"><title>2&#39;</title>
<ellipse fill="none" stroke="black" cx="515" cy="-51" rx="27" ry="18"/>
<text text-anchor="middle" x="515" y="-47.3" font-family="Times,serif" font-size="14.00">2&#39;</text>
</g>
<!-- 1&#45;&gt;2&#39; -->
<g id="edge9" class="edge"><title>1&#45;&gt;2&#39;</title>
<path fill="none" stroke="black" d="M170.018,-38.9141C234.768,-41.1892 403.282,-47.1099 477.733,-49.7257"/>
<polygon fill="black" stroke="black" points="477.894,-53.2335 488.011,-50.0869 478.14,-46.2378 477.894,-53.2335"/>
<text text-anchor="middle" x="323" y="-47.8" font-family="Times,serif" font-size="14.00">1 / &#45;10</text>
</g>
<!-- 3&#39; -->
<g id="node7" class="node"><title>3&#39;</title>
<ellipse fill="none" stroke="black" cx="771" cy="-52" rx="27" ry="18"/>
<text text-anchor="middle" x="771" y="-48.3" font-family="Times,serif" font-size="14.00">3&#39;</text>
</g>
<!-- 1&#45;&gt;3&#39; -->
<g id="edge12" class="edge"><title>1&#45;&gt;3&#39;</title>
<path fill="none" stroke="black" d="M164.331,-26.8043C186.623,-15.5952 223.786,-0 258,-0 258,-0 258,-0 644,-0 680.302,-0 718.341,-18.6719 743,-33.6382"/>
<polygon fill="black" stroke="black" points="741.435,-36.7884 751.764,-39.1461 745.16,-30.8616 741.435,-36.7884"/>
<text text-anchor="middle" x="451" y="-3.8" font-family="Times,serif" font-size="14.00">1 / &#45;10</text>
</g>
<!-- 2 -->
<g id="node4" class="node"><title>2</title>
<ellipse fill="none" stroke="black" cx="387" cy="-84" rx="27" ry="18"/>
<text text-anchor="middle" x="387" y="-80.3" font-family="Times,serif" font-size="14.00">2</text>
</g>
<!-- 1&#39;&#45;&gt;2 -->
<g id="edge3" class="edge"><title>1&#39;&#45;&gt;2</title>
<path fill="none" stroke="black" d="M286.107,-84C304.522,-84 329.43,-84 349.767,-84"/>
<polygon fill="black" stroke="black" points="349.926,-87.5001 359.926,-84 349.926,-80.5001 349.926,-87.5001"/>
<text text-anchor="middle" x="323" y="-87.8" font-family="Times,serif" font-size="14.00">2 / 0</text>
</g>
<!-- 2&#45;&gt;2&#39; -->
<g id="edge4" class="edge"><title>2&#45;&gt;2&#39;</title>
<path fill="none" stroke="black" d="M412.189,-77.3304C418.622,-75.5765 425.57,-73.7001 432,-72 447.699,-67.8492 465.123,-63.3692 479.858,-59.6174"/>
<polygon fill="black" stroke="black" points="480.745,-63.0034 489.575,-57.1494 479.022,-56.2188 480.745,-63.0034"/>
<text text-anchor="middle" x="451" y="-75.8" font-family="Times,serif" font-size="14.00">2 / 0</text>
</g>
<!-- 2&#45;&gt;3&#39; -->
<g id="edge10" class="edge"><title>2&#45;&gt;3&#39;</title>
<path fill="none" stroke="black" d="M414.043,-86.0701C419.944,-86.4571 426.184,-86.802 432,-87 448.879,-87.5748 453.115,-87.3797 470,-87 558.956,-84.9995 581.409,-86.3015 670,-78 695.032,-75.6544 701.737,-76.5874 726,-70 730.212,-68.8566 734.56,-67.4176 738.81,-65.854"/>
<polygon fill="black" stroke="black" points="740.416,-68.9832 748.435,-62.0596 737.848,-62.471 740.416,-68.9832"/>
<text text-anchor="middle" x="579" y="-88.8" font-family="Times,serif" font-size="14.00">1 / &#45;10</text>
</g>
<!-- 3 -->
<g id="node6" class="node"><title>3</title>
<ellipse fill="none" stroke="black" cx="643" cy="-51" rx="27" ry="18"/>
<text text-anchor="middle" x="643" y="-47.3" font-family="Times,serif" font-size="14.00">3</text>
</g>
<!-- 2&#39;&#45;&gt;3 -->
<g id="edge5" class="edge"><title>2&#39;&#45;&gt;3</title>
<path fill="none" stroke="black" d="M542.107,-51C560.522,-51 585.43,-51 605.767,-51"/>
<polygon fill="black" stroke="black" points="605.926,-54.5001 615.926,-51 605.926,-47.5001 605.926,-54.5001"/>
<text text-anchor="middle" x="579" y="-54.8" font-family="Times,serif" font-size="14.00">2 / 0</text>
</g>
<!-- 3&#45;&gt;3&#39; -->
<g id="edge6" class="edge"><title>3&#45;&gt;3&#39;</title>
<path fill="none" stroke="black" d="M665.468,-40.8881C672.49,-38.0779 680.433,-35.4111 688,-34 704.603,-30.9042 709.428,-30.7414 726,-34 730.495,-34.8838 735.108,-36.2304 739.578,-37.7976"/>
<polygon fill="black" stroke="black" points="738.444,-41.112 749.032,-41.4868 740.989,-34.5909 738.444,-41.112"/>
<text text-anchor="middle" x="707" y="-37.8" font-family="Times,serif" font-size="14.00">2 / 0</text>
</g>
<!-- 3&#45;&gt;3&#39; -->
<g id="edge11" class="edge"><title>3&#45;&gt;3&#39;</title>
<path fill="none" stroke="black" d="M670.107,-51.2072C688.522,-51.3533 713.43,-51.551 733.767,-51.7124"/>
<polygon fill="black" stroke="black" points="733.899,-55.2135 743.926,-51.7931 733.954,-48.2137 733.899,-55.2135"/>
<text text-anchor="middle" x="707" y="-54.8" font-family="Times,serif" font-size="14.00">1 / &#45;10</text>
</g>
<!-- ... -->
<g id="node8" class="node"><title>...</title>
<ellipse fill="none" stroke="black" cx="887" cy="-52" rx="27" ry="18"/>
<text text-anchor="middle" x="887" y="-48.3" font-family="Times,serif" font-size="14.00">...</text>
</g>
<!-- 3&#39;&#45;&gt;... -->
<g id="edge7" class="edge"><title>3&#39;&#45;&gt;...</title>
<path fill="none" stroke="black" d="M798.154,-52C813.505,-52 833.128,-52 849.932,-52"/>
<polygon fill="black" stroke="black" points="849.968,-55.5001 859.968,-52 849.968,-48.5001 849.968,-55.5001"/>
<text text-anchor="middle" x="829" y="-55.8" font-family="Times,serif" font-size="14.00">2 / 0</text>
</g>
<!-- 365&#39; -->
<g id="node9" class="node"><title>365&#39;</title>
<ellipse fill="none" stroke="black" cx="1003" cy="-52" rx="27" ry="18"/>
<text text-anchor="middle" x="1003" y="-48.3" font-family="Times,serif" font-size="14.00">365&#39;</text>
</g>
<!-- ...&#45;&gt;365&#39; -->
<g id="edge8" class="edge"><title>...&#45;&gt;365&#39;</title>
<path fill="none" stroke="black" d="M914.154,-52C929.505,-52 949.128,-52 965.932,-52"/>
<polygon fill="black" stroke="black" points="965.968,-55.5001 975.968,-52 965.968,-48.5001 965.968,-55.5001"/>
<text text-anchor="middle" x="945" y="-55.8" font-family="Times,serif" font-size="14.00">2 / 0</text>
</g>
</g>
</svg>
