<?xml version="1.0" encoding="UTF-8" standalone="no"?>
<!DOCTYPE svg PUBLIC "-//W3C//DTD SVG 1.1//EN"
 "http://www.w3.org/Graphics/SVG/1.1/DTD/svg11.dtd">
<!-- Generated by graphviz version 2.36.0 (20140111.2315)
 -->
<!-- Title: g1 Pages: 1 -->
<svg width="740pt" height="332pt"
 viewBox="0.00 0.00 740.00 332.00" xmlns="http://www.w3.org/2000/svg" xmlns:xlink="http://www.w3.org/1999/xlink">
<g id="graph0" class="graph" transform="scale(1 1) rotate(0) translate(4 328)">
<title>g1</title>
<polygon fill="white" stroke="none" points="-4,4 -4,-328 736,-328 736,4 -4,4"/>
<!-- source -->
<g id="node1" class="node"><title>source</title>
<ellipse fill="none" stroke="black" cx="34" cy="-175" rx="33.5952" ry="18"/>
<text text-anchor="middle" x="34" y="-171.3" font-family="Times,serif" font-size="14.00">source</text>
</g>
<!-- 1 -->
<g id="node2" class="node"><title>1</title>
<ellipse fill="none" stroke="black" cx="157" cy="-236" rx="27" ry="18"/>
<text text-anchor="middle" x="157" y="-232.3" font-family="Times,serif" font-size="14.00">1</text>
</g>
<!-- source&#45;&gt;1 -->
<g id="edge1" class="edge"><title>source&#45;&gt;1</title>
<path fill="none" stroke="black" d="M57.1097,-188.137C65.9925,-193.265 76.3883,-199.082 86,-204 98.4842,-210.387 112.496,-216.915 124.686,-222.395"/>
<polygon fill="black" stroke="black" points="123.448,-225.675 134.007,-226.543 126.294,-219.28 123.448,-225.675"/>
<text text-anchor="middle" x="99" y="-219.8" font-family="Times,serif" font-size="14.00">1 / 0</text>
</g>
<!-- 3 -->
<g id="node3" class="node"><title>3</title>
<ellipse fill="none" stroke="black" cx="229" cy="-288" rx="27" ry="18"/>
<text text-anchor="middle" x="229" y="-284.3" font-family="Times,serif" font-size="14.00">3</text>
</g>
<!-- source&#45;&gt;3 -->
<g id="edge2" class="edge"><title>source&#45;&gt;3</title>
<path fill="none" stroke="black" d="M47.0185,-191.716C56.675,-204.461 71.0513,-221.981 86,-235 103.48,-250.223 108.726,-253.798 130,-263 149.989,-271.646 173.613,-277.783 192.657,-281.812"/>
<polygon fill="black" stroke="black" points="192.22,-285.294 202.714,-283.836 193.602,-278.432 192.22,-285.294"/>
<text text-anchor="middle" x="99" y="-257.8" font-family="Times,serif" font-size="14.00">1 / 0</text>
</g>
<!-- 5 -->
<g id="node4" class="node"><title>5</title>
<ellipse fill="none" stroke="black" cx="157" cy="-144" rx="27" ry="18"/>
<text text-anchor="middle" x="157" y="-140.3" font-family="Times,serif" font-size="14.00">5</text>
</g>
<!-- source&#45;&gt;5 -->
<g id="edge3" class="edge"><title>source&#45;&gt;5</title>
<path fill="none" stroke="black" d="M64.3561,-166.781C71.4325,-164.845 78.9775,-162.816 86,-161 97.4947,-158.027 110.091,-154.921 121.391,-152.19"/>
<polygon fill="black" stroke="black" points="122.429,-155.54 131.335,-149.801 120.794,-148.734 122.429,-155.54"/>
<text text-anchor="middle" x="99" y="-164.8" font-family="Times,serif" font-size="14.00">1 / 0</text>
</g>
<!-- 22 -->
<g id="node5" class="node"><title>22</title>
<ellipse fill="none" stroke="black" cx="449" cy="-160" rx="27" ry="18"/>
<text text-anchor="middle" x="449" y="-156.3" font-family="Times,serif" font-size="14.00">22</text>
</g>
<!-- source&#45;&gt;22 -->
<g id="edge4" class="edge"><title>source&#45;&gt;22</title>
<path fill="none" stroke="black" d="M67.92,-175.74C73.9346,-175.848 80.1554,-175.943 86,-176 97.555,-176.113 100.445,-176.059 112,-176 241.783,-175.333 275.649,-192.238 404,-173 407.493,-172.476 411.096,-171.744 414.667,-170.891"/>
<polygon fill="black" stroke="black" points="415.775,-174.218 424.523,-168.241 413.957,-167.458 415.775,-174.218"/>
<text text-anchor="middle" x="229" y="-184.8" font-family="Times,serif" font-size="14.00">1 / 0</text>
</g>
<!-- 7 -->
<g id="node6" class="node"><title>7</title>
<ellipse fill="none" stroke="black" cx="157" cy="-77" rx="27" ry="18"/>
<text text-anchor="middle" x="157" y="-73.3" font-family="Times,serif" font-size="14.00">7</text>
</g>
<!-- source&#45;&gt;7 -->
<g id="edge5" class="edge"><title>source&#45;&gt;7</title>
<path fill="none" stroke="black" d="M53.3773,-160.116C74.1034,-143.329 107.923,-115.938 131.031,-97.2226"/>
<polygon fill="black" stroke="black" points="133.448,-99.7692 139.016,-90.7555 129.042,-94.3295 133.448,-99.7692"/>
<text text-anchor="middle" x="99" y="-134.8" font-family="Times,serif" font-size="14.00">1 / 0</text>
</g>
<!-- 10 -->
<g id="node7" class="node"><title>10</title>
<ellipse fill="none" stroke="black" cx="449" cy="-18" rx="27" ry="18"/>
<text text-anchor="middle" x="449" y="-14.3" font-family="Times,serif" font-size="14.00">10</text>
</g>
<!-- source&#45;&gt;10 -->
<g id="edge6" class="edge"><title>source&#45;&gt;10</title>
<path fill="none" stroke="black" d="M42.8447,-157.398C56.2925,-129.484 86.5603,-75.6089 130,-50 220.37,3.2759 350.703,-4.68598 412.681,-12.4921"/>
<polygon fill="black" stroke="black" points="412.355,-15.9795 422.731,-13.8334 413.282,-9.04105 412.355,-15.9795"/>
<text text-anchor="middle" x="229" y="-24.8" font-family="Times,serif" font-size="14.00">1 / 0</text>
</g>
<!-- 20&#39; -->
<g id="node8" class="node"><title>20&#39;</title>
<ellipse fill="none" stroke="black" cx="303" cy="-236" rx="27" ry="18"/>
<text text-anchor="middle" x="303" y="-232.3" font-family="Times,serif" font-size="14.00">20&#39;</text>
</g>
<!-- 1&#45;&gt;20&#39; -->
<g id="edge7" class="edge"><title>1&#45;&gt;20&#39;</title>
<path fill="none" stroke="black" d="M184.077,-236C206.872,-236 240.207,-236 265.624,-236"/>
<polygon fill="black" stroke="black" points="265.63,-239.5 275.63,-236 265.63,-232.5 265.63,-239.5"/>
<text text-anchor="middle" x="229" y="-239.8" font-family="Times,serif" font-size="14.00">1 / &#45;1000</text>
</g>
<!-- 25&#39; -->
<g id="node9" class="node"><title>25&#39;</title>
<ellipse fill="none" stroke="black" cx="377" cy="-291" rx="27" ry="18"/>
<text text-anchor="middle" x="377" y="-287.3" font-family="Times,serif" font-size="14.00">25&#39;</text>
</g>
<!-- 3&#45;&gt;25&#39; -->
<g id="edge8" class="edge"><title>3&#45;&gt;25&#39;</title>
<path fill="none" stroke="black" d="M256.102,-288.536C279.314,-289.013 313.498,-289.716 339.432,-290.249"/>
<polygon fill="black" stroke="black" points="339.562,-293.752 349.632,-290.458 339.706,-286.753 339.562,-293.752"/>
<text text-anchor="middle" x="303" y="-293.8" font-family="Times,serif" font-size="14.00">1 / &#45;10000</text>
</g>
<!-- 15&#39; -->
<g id="node10" class="node"><title>15&#39;</title>
<ellipse fill="none" stroke="black" cx="303" cy="-144" rx="27" ry="18"/>
<text text-anchor="middle" x="303" y="-140.3" font-family="Times,serif" font-size="14.00">15&#39;</text>
</g>
<!-- 5&#45;&gt;15&#39; -->
<g id="edge9" class="edge"><title>5&#45;&gt;15&#39;</title>
<path fill="none" stroke="black" d="M184.077,-144C206.872,-144 240.207,-144 265.624,-144"/>
<polygon fill="black" stroke="black" points="265.63,-147.5 275.63,-144 265.63,-140.5 265.63,-147.5"/>
<text text-anchor="middle" x="229" y="-147.8" font-family="Times,serif" font-size="14.00">1 / &#45;5000</text>
</g>
<!-- 300&#39; -->
<g id="node11" class="node"><title>300&#39;</title>
<ellipse fill="none" stroke="black" cx="589" cy="-151" rx="27" ry="18"/>
<text text-anchor="middle" x="589" y="-147.3" font-family="Times,serif" font-size="14.00">300&#39;</text>
</g>
<!-- 22&#45;&gt;300&#39; -->
<g id="edge10" class="edge"><title>22&#45;&gt;300&#39;</title>
<path fill="none" stroke="black" d="M475.957,-158.307C497.313,-156.914 527.827,-154.924 551.621,-153.373"/>
<polygon fill="black" stroke="black" points="551.939,-156.859 561.69,-152.716 551.484,-149.874 551.939,-156.859"/>
<text text-anchor="middle" x="519" y="-160.8" font-family="Times,serif" font-size="14.00">1 / &#45;5500</text>
</g>
<!-- 7&#39; -->
<g id="node12" class="node"><title>7&#39;</title>
<ellipse fill="none" stroke="black" cx="303" cy="-67" rx="27" ry="18"/>
<text text-anchor="middle" x="303" y="-63.3" font-family="Times,serif" font-size="14.00">7&#39;</text>
</g>
<!-- 7&#45;&gt;7&#39; -->
<g id="edge11" class="edge"><title>7&#45;&gt;7&#39;</title>
<path fill="none" stroke="black" d="M184.077,-75.1891C207.015,-73.5962 240.624,-71.2622 266.099,-69.4931"/>
<polygon fill="black" stroke="black" points="266.383,-72.9819 276.117,-68.7975 265.898,-65.9987 266.383,-72.9819"/>
<text text-anchor="middle" x="229" y="-77.8" font-family="Times,serif" font-size="14.00">1 / &#45;6000</text>
</g>
<!-- 295&#39; -->
<g id="node13" class="node"><title>295&#39;</title>
<ellipse fill="none" stroke="black" cx="589" cy="-18" rx="27" ry="18"/>
<text text-anchor="middle" x="589" y="-14.3" font-family="Times,serif" font-size="14.00">295&#39;</text>
</g>
<!-- 10&#45;&gt;295&#39; -->
<g id="edge12" class="edge"><title>10&#45;&gt;295&#39;</title>
<path fill="none" stroke="black" d="M476.282,-18C497.672,-18 528.092,-18 551.789,-18"/>
<polygon fill="black" stroke="black" points="551.816,-21.5001 561.816,-18 551.816,-14.5001 551.816,-21.5001"/>
<text text-anchor="middle" x="519" y="-21.8" font-family="Times,serif" font-size="14.00">1 / &#45;9000</text>
</g>
<!-- 20&#39;&#45;&gt;22 -->
<g id="edge19" class="edge"><title>20&#39;&#45;&gt;22</title>
<path fill="none" stroke="black" d="M328,-228.851C353.224,-221.118 391.011,-208.846 404,-201 412.222,-196.033 420.217,-189.341 427.087,-182.805"/>
<polygon fill="black" stroke="black" points="429.98,-184.862 434.58,-175.317 425.032,-179.91 429.98,-184.862"/>
<text text-anchor="middle" x="377" y="-224.8" font-family="Times,serif" font-size="14.00">1 / 0</text>
</g>
<!-- sink -->
<g id="node14" class="node"><title>sink</title>
<ellipse fill="none" stroke="black" cx="705" cy="-122" rx="27" ry="18"/>
<text text-anchor="middle" x="705" y="-118.3" font-family="Times,serif" font-size="14.00">sink</text>
</g>
<!-- 20&#39;&#45;&gt;sink -->
<g id="edge13" class="edge"><title>20&#39;&#45;&gt;sink</title>
<path fill="none" stroke="black" d="M329.614,-239.147C349.895,-241.067 378.89,-242.541 404,-239 501.085,-225.31 524.014,-211.932 616,-178 636.153,-170.566 641.757,-169.341 660,-158 667.073,-153.603 674.263,-148.194 680.725,-142.918"/>
<polygon fill="black" stroke="black" points="683.073,-145.516 688.457,-136.391 678.558,-140.167 683.073,-145.516"/>
<text text-anchor="middle" x="519" y="-224.8" font-family="Times,serif" font-size="14.00">1 / 0</text>
</g>
<!-- 25&#39;&#45;&gt;sink -->
<g id="edge14" class="edge"><title>25&#39;&#45;&gt;sink</title>
<path fill="none" stroke="black" d="M402.413,-297.111C455.755,-308.9 584.003,-328.524 660,-267 694.87,-238.77 702.808,-183.802 704.221,-150.249"/>
<polygon fill="black" stroke="black" points="707.722,-150.254 704.477,-140.169 700.725,-150.077 707.722,-150.254"/>
<text text-anchor="middle" x="519" y="-312.8" font-family="Times,serif" font-size="14.00">1 / 0</text>
</g>
<!-- 15&#39;&#45;&gt;22 -->
<g id="edge20" class="edge"><title>15&#39;&#45;&gt;22</title>
<path fill="none" stroke="black" d="M329.744,-146.86C352.639,-149.404 386.354,-153.15 411.933,-155.993"/>
<polygon fill="black" stroke="black" points="411.668,-159.485 421.993,-157.11 412.441,-152.527 411.668,-159.485"/>
<text text-anchor="middle" x="377" y="-157.8" font-family="Times,serif" font-size="14.00">1 / 0</text>
</g>
<!-- 15&#39;&#45;&gt;sink -->
<g id="edge15" class="edge"><title>15&#39;&#45;&gt;sink</title>
<path fill="none" stroke="black" d="M316.634,-127.999C324.986,-118.771 336.804,-108.027 350,-103 461.098,-60.6748 606.088,-93.0407 670.569,-111.479"/>
<polygon fill="black" stroke="black" points="669.628,-114.85 680.209,-114.305 671.598,-108.133 669.628,-114.85"/>
<text text-anchor="middle" x="519" y="-89.8" font-family="Times,serif" font-size="14.00">1 / 0</text>
</g>
<!-- 300&#39;&#45;&gt;sink -->
<g id="edge16" class="edge"><title>300&#39;&#45;&gt;sink</title>
<path fill="none" stroke="black" d="M614.456,-144.779C630.535,-140.689 651.809,-135.277 669.587,-130.754"/>
<polygon fill="black" stroke="black" points="670.756,-134.068 679.585,-128.211 669.03,-127.284 670.756,-134.068"/>
<text text-anchor="middle" x="647" y="-142.8" font-family="Times,serif" font-size="14.00">1 / 0</text>
</g>
<!-- 7&#39;&#45;&gt;22 -->
<g id="edge21" class="edge"><title>7&#39;&#45;&gt;22</title>
<path fill="none" stroke="black" d="M323.302,-78.8726C343.54,-91.3873 376.201,-111.775 404,-130 409.582,-133.659 415.514,-137.64 421.155,-141.471"/>
<polygon fill="black" stroke="black" points="419.457,-144.549 429.689,-147.298 423.404,-138.768 419.457,-144.549"/>
<text text-anchor="middle" x="377" y="-133.8" font-family="Times,serif" font-size="14.00">1 / 0</text>
</g>
<!-- 7&#39;&#45;&gt;10 -->
<g id="edge22" class="edge"><title>7&#39;&#45;&gt;10</title>
<path fill="none" stroke="black" d="M320.433,-52.9315C328.779,-46.5017 339.382,-39.3621 350,-35 369.542,-26.9723 392.788,-22.7349 411.734,-20.4984"/>
<polygon fill="black" stroke="black" points="412.185,-23.9705 421.767,-19.4504 411.458,-17.0084 412.185,-23.9705"/>
<text text-anchor="middle" x="377" y="-38.8" font-family="Times,serif" font-size="14.00">1 / 0</text>
</g>
<!-- 7&#39;&#45;&gt;sink -->
<g id="edge17" class="edge"><title>7&#39;&#45;&gt;sink</title>
<path fill="none" stroke="black" d="M329.741,-64.0972C373.862,-59.6962 466.654,-52.9506 544,-64 576.998,-68.714 584.016,-75.6109 616,-85 635.566,-90.7437 641.166,-90.185 660,-98 665.124,-100.126 670.424,-102.681 675.495,-105.321"/>
<polygon fill="black" stroke="black" points="673.829,-108.399 684.289,-110.087 677.165,-102.244 673.829,-108.399"/>
<text text-anchor="middle" x="519" y="-67.8" font-family="Times,serif" font-size="14.00">1 / 0</text>
</g>
<!-- 295&#39;&#45;&gt;sink -->
<g id="edge18" class="edge"><title>295&#39;&#45;&gt;sink</title>
<path fill="none" stroke="black" d="M616.268,-19.1253C630.502,-20.9386 647.653,-25.2098 660,-35 678.774,-49.8865 690.24,-74.9115 696.738,-94.3107"/>
<polygon fill="black" stroke="black" points="693.477,-95.6131 699.775,-104.134 700.165,-93.5459 693.477,-95.6131"/>
<text text-anchor="middle" x="647" y="-38.8" font-family="Times,serif" font-size="14.00">1 / 0</text>
</g>
</g>
</svg>
