<?xml version="1.0" encoding="UTF-8" standalone="no"?>
<!DOCTYPE svg PUBLIC "-//W3C//DTD SVG 1.1//EN"
 "http://www.w3.org/Graphics/SVG/1.1/DTD/svg11.dtd">
<!-- Generated by graphviz version 2.36.0 (20140111.2315)
 -->
<!-- Title: g Pages: 1 -->
<svg width="332pt" height="98pt"
 viewBox="0.00 0.00 332.00 98.00" xmlns="http://www.w3.org/2000/svg" xmlns:xlink="http://www.w3.org/1999/xlink">
<g id="graph0" class="graph" transform="scale(1 1) rotate(0) translate(4 94)">
<title>g</title>
<polygon fill="white" stroke="none" points="-4,4 -4,-94 328,-94 328,4 -4,4"/>
<!-- 1 -->
<g id="node1" class="node"><title>1</title>
<ellipse fill="none" stroke="black" cx="27" cy="-72" rx="27" ry="18"/>
<text text-anchor="middle" x="27" y="-68.3" font-family="Times,serif" font-size="14.00">1</text>
</g>
<!-- 3 -->
<g id="node2" class="node"><title>3</title>
<ellipse fill="none" stroke="black" cx="117" cy="-45" rx="27" ry="18"/>
<text text-anchor="middle" x="117" y="-41.3" font-family="Times,serif" font-size="14.00">3</text>
</g>
<!-- 1&#45;&gt;3 -->
<g id="edge1" class="edge"><title>1&#45;&gt;3</title>
<path fill="none" stroke="black" d="M52.0464,-64.6221C61.4354,-61.7414 72.3623,-58.3888 82.4996,-55.2785"/>
<polygon fill="black" stroke="black" points="83.7539,-58.5548 92.2874,-52.2755 81.7006,-51.8627 83.7539,-58.5548"/>
</g>
<!-- 4 -->
<g id="node4" class="node"><title>4</title>
<ellipse fill="none" stroke="black" cx="207" cy="-45" rx="27" ry="18"/>
<text text-anchor="middle" x="207" y="-41.3" font-family="Times,serif" font-size="14.00">4</text>
</g>
<!-- 3&#45;&gt;4 -->
<g id="edge3" class="edge"><title>3&#45;&gt;4</title>
<path fill="none" stroke="black" d="M144.403,-45C152.393,-45 161.311,-45 169.824,-45"/>
<polygon fill="black" stroke="black" points="169.919,-48.5001 179.919,-45 169.919,-41.5001 169.919,-48.5001"/>
</g>
<!-- 2 -->
<g id="node3" class="node"><title>2</title>
<ellipse fill="none" stroke="black" cx="27" cy="-18" rx="27" ry="18"/>
<text text-anchor="middle" x="27" y="-14.3" font-family="Times,serif" font-size="14.00">2</text>
</g>
<!-- 2&#45;&gt;3 -->
<g id="edge2" class="edge"><title>2&#45;&gt;3</title>
<path fill="none" stroke="black" d="M52.0464,-25.3779C61.4354,-28.2586 72.3623,-31.6112 82.4996,-34.7215"/>
<polygon fill="black" stroke="black" points="81.7006,-38.1373 92.2874,-37.7245 83.7539,-31.4452 81.7006,-38.1373"/>
</g>
<!-- 5 -->
<g id="node5" class="node"><title>5</title>
<ellipse fill="none" stroke="black" cx="297" cy="-72" rx="27" ry="18"/>
<text text-anchor="middle" x="297" y="-68.3" font-family="Times,serif" font-size="14.00">5</text>
</g>
<!-- 4&#45;&gt;5 -->
<g id="edge4" class="edge"><title>4&#45;&gt;5</title>
<path fill="none" stroke="black" d="M232.046,-52.3779C241.435,-55.2586 252.362,-58.6112 262.5,-61.7215"/>
<polygon fill="black" stroke="black" points="261.701,-65.1373 272.287,-64.7245 263.754,-58.4452 261.701,-65.1373"/>
</g>
<!-- 6 -->
<g id="node6" class="node"><title>6</title>
<ellipse fill="none" stroke="black" cx="297" cy="-18" rx="27" ry="18"/>
<text text-anchor="middle" x="297" y="-14.3" font-family="Times,serif" font-size="14.00">6</text>
</g>
<!-- 4&#45;&gt;6 -->
<g id="edge5" class="edge"><title>4&#45;&gt;6</title>
<path fill="none" stroke="black" d="M232.046,-37.6221C241.435,-34.7414 252.362,-31.3888 262.5,-28.2785"/>
<polygon fill="black" stroke="black" points="263.754,-31.5548 272.287,-25.2755 261.701,-24.8627 263.754,-31.5548"/>
</g>
</g>
</svg>
